<?xml version="1.0" encoding="UTF-8" standalone="no"?>
<svg
   width="200mm"
   height="200mm"
   viewBox="0 0 200 200"
   version="1.1"
   id="svg5"
   sodipodi:docname="big-gear.svg"
   inkscape:version="1.1.2 (b8e25be833, 2022-02-05)"
   xmlns:inkscape="http://www.inkscape.org/namespaces/inkscape"
   xmlns:sodipodi="http://sodipodi.sourceforge.net/DTD/sodipodi-0.dtd"
   xmlns="http://www.w3.org/2000/svg"
   xmlns:svg="http://www.w3.org/2000/svg">
  <sodipodi:namedview
     id="namedview7"
     pagecolor="#ffffff"
     bordercolor="#ffffff"
     borderopacity="1.0"
     inkscape:pageshadow="2"
     inkscape:pageopacity="0.0"
     inkscape:pagecheckerboard="0"
     inkscape:document-units="mm"
     showgrid="false"
     width="200mm"
     inkscape:zoom="0.7402988"
     inkscape:cx="303.93133"
     inkscape:cy="436.31031"
     inkscape:window-width="1920"
     inkscape:window-height="1017"
     inkscape:window-x="-8"
     inkscape:window-y="-8"
     inkscape:window-maximized="1"
     inkscape:current-layer="layer1"
     inkscape:snap-center="true"
     inkscape:snap-bbox="true"
     inkscape:snap-global="true">
    <inkscape:grid
       type="xygrid"
       id="grid2900" />
  </sodipodi:namedview>
  <g
     inkscape:label="Слой 1"
     inkscape:groupmode="layer"
     id="layer1">
    <g
       inkscape:label="Rendered Gears"
       transform="matrix(4.0872402,0,0,4.0872402,100,100)"
       id="g1381"
       style="stroke-width:1;stroke-miterlimit:4;stroke-dasharray:none;fill:none;fill-opacity:1;stroke:#ffffff;stroke-opacity:1">
      <path
         style="fill:none;stroke:#ffffff;stroke-width:1;stroke-miterlimit:4;stroke-dasharray:none;fill-opacity:1;stroke-opacity:1"
         d="m 21.6084,-1.25902 1.2881,0.25934 1.2903,0.52051 v 0.95834 l -1.2903,0.52051 -1.2881,0.25934 -0.1096,1.25335 1.2234,0.47907 1.1804,0.73666 -0.1665,0.94379 -1.361,0.28854 -1.3136,0.03172 -0.3256,1.21528 1.1217,0.68424 1.0345,0.93043 -0.3278,0.90055 -1.3905,0.04781 -1.2991,-0.19685 -0.5318,1.14026 0.9859,0.86863 0.8572,1.0959 -0.4792,0.83 -1.3777,-0.1944 -1.2452,-0.4194 -0.7216,1.0306 0.82,1.0266 0.6539,1.2281 -0.616,0.7341 -1.3231,-0.4306 -1.1534,-0.6293 -0.8896,0.8896 0.6293,1.1534 0.4306,1.3231 -0.7341,0.616 -1.2281,-0.6539 -1.0266,-0.82 -1.0306,0.7216 0.4194,1.2452 0.1944,1.3777 -0.83,0.4792 L 10.5825,20.3288 9.71387,19.3429 8.57361,19.8747 8.77046,21.1738 8.72265,22.5643 7.8221,22.8921 6.89167,21.8576 6.20743,20.7359 4.99215,21.0615 4.96043,22.3751 4.67189,23.7361 3.7281,23.9026 2.99144,22.7222 2.51237,21.4988 1.25902,21.6084 0.99968,22.8965 0.47917,24.1868 h -0.95834 l -0.52051,-1.2903 -0.25934,-1.2881 -1.25335,-0.1096 -0.47907,1.2234 -0.73666,1.1804 -0.94379,-0.1665 -0.28854,-1.361 -0.03172,-1.3136 -1.21528,-0.3256 -0.68424,1.1217 -0.93043,1.0345 -0.90055,-0.3278 -0.04781,-1.3905 0.19685,-1.2991 -1.14026,-0.5318 -0.86863,0.9859 -1.0959,0.8572 -0.83,-0.4792 0.1944,-1.3777 0.4194,-1.2452 -1.0306,-0.7216 -1.0266,0.82 -1.2281,0.6539 -0.7341,-0.616 0.4306,-1.3231 0.6293,-1.1534 -0.8896,-0.8896 -1.1534,0.6293 -1.3231,0.4306 -0.616,-0.7341 0.6539,-1.2281 0.82,-1.0266 -0.7216,-1.0306 -1.2452,0.4194 -1.3777,0.1944 -0.4792,-0.83 0.8572,-1.0959 0.9859,-0.86863 -0.5318,-1.14026 -1.2991,0.19685 -1.3905,-0.04781 -0.3278,-0.90055 1.0345,-0.93043 1.1217,-0.68424 -0.3256,-1.21528 -1.3136,-0.03172 -1.361,-0.28854 -0.1665,-0.94379 1.1804,-0.73666 1.2234,-0.47907 -0.1096,-1.25335 -1.2881,-0.25934 -1.2903,-0.52051 v -0.95834 l 1.2903,-0.52051 1.2881,-0.25934 0.1096,-1.25335 -1.2234,-0.47907 -1.1804,-0.73666 0.1665,-0.94379 1.361,-0.28854 1.3136,-0.03172 0.3256,-1.21528 -1.1217,-0.68424 -1.0345,-0.93043 0.3278,-0.90055 1.3905,-0.04781 1.2991,0.19685 0.5318,-1.14026 -0.9859,-0.86863 -0.8572,-1.0959 0.4792,-0.83 1.3777,0.1944 1.2452,0.4194 0.7216,-1.0306 -0.82,-1.0266 -0.6539,-1.2281 0.616,-0.7341 1.3231,0.4306 1.1534,0.6293 0.8896,-0.8896 -0.6293,-1.1534 -0.4306,-1.3231 0.7341,-0.616 1.2281,0.6539 1.0266,0.82 1.0306,-0.7216 -0.4194,-1.2452 -0.1944,-1.3777 0.83,-0.4792 1.0959,0.8572 0.86863,0.9859 1.14026,-0.5318 -0.19685,-1.2991 0.04781,-1.3905 0.90055,-0.3278 0.93043,1.0345 0.68424,1.1217 1.21528,-0.3256 0.03172,-1.3136 0.28854,-1.361 0.94379,-0.1665 0.73666,1.1804 0.47907,1.2234 1.25335,-0.1096 0.25934,-1.2881 0.52051,-1.2903 h 0.95834 l 0.52051,1.2903 0.25934,1.2881 1.25335,0.1096 0.47907,-1.2234 0.73666,-1.1804 0.94379,0.1665 0.28854,1.361 0.03172,1.3136 1.21528,0.3256 0.68424,-1.1217 0.93043,-1.0345 0.90055,0.3278 0.04781,1.3905 -0.19685,1.2991 1.14026,0.5318 0.86863,-0.9859 1.0959,-0.8572 0.83,0.4792 -0.1944,1.3777 -0.4194,1.2452 1.0306,0.7216 1.0266,-0.82 1.2281,-0.6539 0.7341,0.616 -0.4306,1.3231 -0.6293,1.1534 0.8896,0.8896 1.1534,-0.6293 1.3231,-0.4306 0.616,0.7341 -0.6539,1.2281 -0.82,1.0266 0.7216,1.0306 1.2452,-0.4194 1.3777,-0.1944 0.4792,0.83 -0.8572,1.0959 -0.9859,0.86863 0.5318,1.14026 1.2991,-0.19685 1.3905,0.04781 0.3278,0.90055 -1.0345,0.93043 -1.1217,0.68424 0.3256,1.21528 1.3136,0.03172 1.361,0.28854 0.1665,0.94379 -1.1804,0.73666 -1.2234,0.47907 z"
         id="path1379" />
    </g>
    <path
       id="path1765"
       style="fill:none;stroke:#ffffff;stroke-width:10;stroke-opacity:1;stroke-miterlimit:4;stroke-dasharray:none;fill-opacity:1"
       d="M 331.23242,153.26367 A 220,229.99999 0 0 0 162.54297,331.23242 h 133.96094 a 94.547064,94.051511 0 0 1 34.72851,-34.45508 z m 93.44141,0.002 v 142.94532 a 94.547064,94.051511 0 0 1 35.32226,35.02148 H 593.35742 A 220,229.99999 0 0 0 424.67383,153.26562 Z M 162.54297,424.67383 A 220,229.99999 0 0 0 331.23242,602.64258 V 459.12891 a 94.547064,94.051511 0 0 1 -34.72851,-34.45508 z m 296.85937,0 a 94.547064,94.051511 0 0 1 -34.72851,34.45508 V 602.64258 A 220,229.99999 0 0 0 593.36328,424.67383 Z"
       transform="scale(0.26458333)" />
    <path
       id="path2232"
       style="fill:none;fill-opacity:1;stroke:#ffffff;stroke-width:5;stroke-miterlimit:4;stroke-dasharray:none;stroke-opacity:1"
       d="m 110.07039,100.00009 a 10.070296,10.070296 0 0 1 -10.0703,10.0703 10.070296,10.070296 0 0 1 -10.070291,-10.0703 10.070296,10.070296 0 0 1 10.070291,-10.070289 10.070296,10.070296 0 0 1 10.0703,10.070289 z" />
  </g>
</svg>
